<svg xmlns="http://www.w3.org/2000/svg" aria-hidden="true" style="position:absolute;width:0;height:0;overflow:hidden">
  <defs>
    <symbol id="close-icon" viewBox="0 0 32 32">
      <path d="M.668.667a2.283 2.283 0 0 1 3.236 0L16 12.768 28.096.667a2.29 2.29 0 0 1 3.733.742 2.29 2.29 0 0 1-.496 2.495L19.232 16l12.101 12.096a2.29 2.29 0 0 1 0 3.236 2.3 2.3 0 0 1-1.619.67 2.29 2.29 0 0 1-1.618-.67L16 19.231 3.904 31.332a2.29 2.29 0 0 1-3.236 0 2.29 2.29 0 0 1 0-3.236L12.769 16 .668 3.904a2.283 2.283 0 0 1 0-3.236z"/>
    </symbol>
    <symbol id="next-icon" viewBox="0 0 19 32">
      <path d="M1.551.75a1.198 1.198 0 0 1 1.7 0l14.4 14.4a1.198 1.198 0 0 1 0 1.7l-14.4 14.4a1.203 1.203 0 0 1-1.7-1.7L15.104 16 1.551 2.45a1.198 1.198 0 0 1 0-1.7z"/>
    </symbol>
    <symbol id="prev-icon" viewBox="0 0 19 32">
      <path d="M17.65.75a1.198 1.198 0 0 1 0 1.7L4.097 16 17.65 29.55a1.203 1.203 0 0 1-1.7 1.7l-14.4-14.4a1.21 1.21 0 0 1-.353-.85 1.192 1.192 0 0 1 .353-.85L15.95.75a1.21 1.21 0 0 1 .85-.353 1.192 1.192 0 0 1 .85.353z"/>
    </symbol>
  </defs>
</svg>
